<svg width="16" height="16" viewBox="0 0 16 16" fill="none" xmlns="http://www.w3.org/2000/svg">
<path d="M9.25 12.5C9.25 12.7472 9.17669 12.9889 9.03934 13.1945C8.90199 13.4 8.70676 13.5602 8.47836 13.6548C8.24995 13.7495 7.99861 13.7742 7.75614 13.726C7.51366 13.6778 7.29093 13.5587 7.11612 13.3839C6.9413 13.2091 6.82225 12.9863 6.77402 12.7439C6.72579 12.5014 6.75054 12.2501 6.84515 12.0216C6.93976 11.7932 7.09998 11.598 7.30554 11.4607C7.5111 11.3233 7.75277 11.25 8 11.25C8.33152 11.25 8.64946 11.3817 8.88388 11.6161C9.1183 11.8505 9.25 12.1685 9.25 12.5ZM8 10C8.19891 10 8.38968 9.92098 8.53033 9.78033C8.67098 9.63968 8.75 9.44891 8.75 9.25V3C8.75 2.80109 8.67098 2.61032 8.53033 2.46967C8.38968 2.32902 8.19891 2.25 8 2.25C7.80109 2.25 7.61032 2.32902 7.46967 2.46967C7.32902 2.61032 7.25 2.80109 7.25 3V9.25C7.25 9.44891 7.32902 9.63968 7.46967 9.78033C7.61032 9.92098 7.80109 10 8 10Z" fill="white"/>
</svg>
